<svg width="141" height="59" viewBox="0 0 141 59" fill="none" xmlns="http://www.w3.org/2000/svg">
<path d="M104 14H115V18H104V14Z" fill="#FFC300"/>
<path d="M109 33C106.239 33 104 30.7614 104 28V5C104 2.23858 106.239 0 109 0H110C112.761 0 115 2.23858 115 5V28C115 30.7614 112.761 33 110 33H109Z" fill="#FFC300"/>
<path d="M120.831 47.824C119.124 47.824 116.69 48.08 114.812 47.824C112.87 48.0849 111.443 47.9693 109.779 47.5C108 47.5 106.823 48.403 105.5 47.763C104.519 48.0617 103.892 48.396 103.423 47.5C102.5 51 100.872 48.787 101 47.763C101.796 47.763 102.825 48.268 103.423 47.5C104.767 47.8424 104.519 48.019 105.5 47.763C106.481 47.4644 108.671 48.0299 109.779 47.5C111.4 48.268 112.628 47.824 114.812 47.824C116.86 48.2507 118.399 47.763 120.191 47.763C123.007 47.763 127.5 47.5 128.5 47.5C130.5 45.5 129.977 46.1251 129.977 35.6251C130 34.5 129 33 127 32.96C126.5 33 124.006 32.96 122 32.96L111.5 33C107 33 104 27.5 104 24.5C104 21.5 104 18.3707 104 15C104 12.7813 104 10.796 104 8.5C104 6.204 103.836 2.78 105.5 1.5C107.207 0.220001 108.687 1.60784e-05 111.5 1.60784e-05C114.314 1.60784e-05 119.636 1.60784e-05 122.495 1.60784e-05C124.713 1.60784e-05 126.5 2.68221e-07 129 2.68221e-07C131.071 1.60784e-05 127.3 0.555984 129.967 0.5C131.3 0.555984 131.967 1.5 131.967 5C131.967 8.5 128.467 4 128.467 5C128.467 6 130.967 6.5 129.967 6.5C128.967 6.5 132 9 131 9C130 9 132.5 11 131 11C129.5 11 128 11 126.5 11C125 11 123.451 11 122 11C120.421 11 119.5 11 118.5 11C117 11 116.372 11.0934 115.775 11.776C115.22 12.4587 114.943 13.248 114.943 14.144C114.943 15.04 114.775 20.86 115.5 21.5C116.268 22.0973 118 22 120 22H127C131.5 22 134.847 21.952 136.895 24C138.943 26.048 140.967 21.7265 140.967 29.5C140.967 31.7187 140.967 49.5 140.967 52C140.967 54.5 136.895 47.5 134 47.5C132 47.5 130.5 47.5 128.5 47.5C125.734 47.5 123.775 47.824 120.831 47.824Z" fill="#FFC300"/>
<path d="M123 33V22L127 22L127 33H123Z" fill="#FFC300"/>
<path d="M126 11V2.68221e-07H130V11H126Z" fill="#FFC300"/>
<path d="M10 51C10 48.2386 12.2386 47.5 15 47.5H136C138.761 47.5 141 49.7386 141 52.5V53.5C141 56.2614 138.761 58.5 136 58.5L15 58C12.2386 58 10 57.7614 10 55V51Z" fill="#FFC300"/>
<path d="M117 5C117 2.23858 119.239 2.68221e-07 122 2.68221e-07H136C138.761 2.68221e-07 141 2.23858 141 5V6C141 8.76142 138.761 11 136 11L122 11C119.239 11 117 8.76142 117 6V5Z" fill="#FFC300"/>
<path d="M117 27C117 24.2386 119.239 22 122 22H136C138.761 22 141 24.2386 141 27V28C141 30.7614 138.761 33 136 33H122C119.239 33 117 30.7614 117 28V27Z" fill="#FFC300"/>
<path d="M15.504 46.272C13.712 46.272 12.3467 45.8027 11.408 44.864C10.4694 43.9253 10 42.5387 10 40.704V5.824C10 3.94667 10.4694 2.51733 11.408 1.536C12.3467 0.512 13.584 0 15.12 0C16.4854 0 17.552 0.256001 18.32 0.768002C19.088 1.28 19.9414 2.13333 20.88 3.328L41.168 28.672H39.376V5.504C39.376 3.712 39.824 2.34667 40.72 1.408C41.6587 0.469334 43.024 0 44.816 0C46.608 0 47.952 0.469334 48.848 1.408C49.7867 2.34667 50.256 3.712 50.256 5.504V40.96C50.256 42.5813 49.8294 43.8827 48.976 44.864C48.1227 45.8027 46.9707 46.272 45.52 46.272C44.0694 46.272 42.9174 46.016 42.064 45.504C41.2534 44.9493 40.3787 44.096 39.44 42.944L19.152 17.536H20.944V40.704C20.944 42.5387 20.4747 43.9253 19.536 44.864C18.64 45.8027 17.296 46.272 15.504 46.272Z" fill="#512eed"/>
<path d="M58.312 46.272C56.6053 46.272 55.2826 45.8027 54.344 44.864C53.448 43.9253 53 42.6027 53 40.896V5.376C53 3.62667 53.4906 2.304 54.472 1.408C55.4533 0.469334 56.84 0 58.632 0C60.1253 0 61.2986 0.298667 62.152 0.896C63.048 1.45067 63.8586 2.38933 64.584 3.712L78.344 28.416H76.104L89.8 3.712C90.568 2.38933 91.3786 1.45067 92.232 0.896C93.128 0.298667 94.3226 0 95.816 0C97.5226 0 98.824 0.469334 99.72 1.408C100.659 2.304 101.128 3.62667 101.128 5.376V40.896C101.128 42.6027 100.68 43.9253 99.784 44.864C98.888 45.8027 97.5653 46.272 95.816 46.272C94.1093 46.272 92.7866 45.8027 91.848 44.864C90.952 43.9253 90.504 42.6027 90.504 40.896V18.88H91.848L81.544 36.8C80.9466 37.7387 80.3066 38.4427 79.624 38.912C78.984 39.3813 78.1093 39.616 77 39.616C75.9333 39.616 75.0586 39.3813 74.376 38.912C73.6933 38.4427 73.0746 37.7387 72.52 36.8L62.152 18.816H63.624V40.896C63.624 42.6027 63.176 43.9253 62.28 44.864C61.384 45.8027 60.0613 46.272 58.312 46.272Z" fill="#512eed"/>
</svg>
